<?xml version="1.0" standalone="no"?>
<!DOCTYPE svg PUBLIC "-//W3C//DTD SVG 20010904//EN"
 "http://www.w3.org/TR/2001/REC-SVG-20010904/DTD/svg10.dtd">
<svg version="1.0" xmlns="http://www.w3.org/2000/svg"
 width="1178.000000pt" height="474.000000pt" viewBox="0 0 1178.000000 474.000000"
 preserveAspectRatio="xMidYMid meet">

<g transform="translate(0.000000,474.000000) scale(0.100000,-0.100000)"
fill="#000000" stroke="none">
<path d="M6874 4685 c-471 -85 -778 -425 -877 -970 -20 -110 -22 -153 -22
-500 0 -348 2 -390 22 -501 125 -686 593 -1053 1243 -974 380 47 662 250 798
576 27 65 68 222 77 297 l7 58 -122 -3 -123 -3 -19 -93 c-77 -383 -276 -576
-642 -622 -116 -15 -283 -8 -371 15 -108 29 -219 91 -304 171 -153 144 -243
317 -293 566 -22 107 -23 135 -23 518 0 401 1 406 27 525 47 216 127 379 250
511 150 160 335 234 585 234 416 -1 668 -196 763 -591 11 -46 20 -96 20 -111
l0 -28 126 0 126 0 -7 58 c-20 158 -85 344 -165 465 -185 282 -472 419 -875
416 -71 0 -162 -7 -201 -14z"/>
<path d="M1568 3573 c-3 -1088 -3 -1088 -26 -1166 -33 -118 -79 -203 -151
-279 -76 -81 -150 -128 -251 -160 -64 -19 -96 -23 -210 -23 -151 1 -225 16
-325 65 -166 82 -260 231 -284 454 -6 52 -11 98 -11 101 0 3 -55 5 -121 5
l-122 0 7 -93 c23 -330 187 -573 457 -677 113 -43 206 -61 355 -67 478 -20
805 216 910 658 16 68 18 163 21 1172 l4 1097 -125 0 -125 0 -3 -1087z"/>
<path d="M2923 3603 c3 -1030 4 -1060 24 -1148 45 -196 119 -334 242 -455 168
-165 392 -253 682 -267 469 -22 835 169 1000 521 16 34 42 107 56 162 l28 99
3 1073 3 1072 -125 0 -125 0 -3 -1067 -3 -1068 -23 -75 c-77 -248 -229 -401
-477 -476 -83 -25 -103 -27 -265 -27 -161 0 -182 2 -263 26 -255 78 -401 223
-479 477 l-23 75 -3 1068 -3 1067 -125 0 -125 0 4 -1057z"/>
<path d="M9997 4363 c-90 -164 -222 -404 -292 -533 -70 -129 -210 -383 -310
-565 -100 -181 -252 -458 -337 -615 -86 -157 -235 -429 -332 -604 -97 -175
-175 -321 -173 -322 2 -2 728 -3 1614 -2 l1610 3 -281 515 c-364 667 -649
1186 -901 1640 -111 201 -252 458 -314 573 -62 114 -114 207 -116 207 -1 0
-77 -134 -168 -297z"/>
<path d="M3132 743 l3 -428 30 0 30 0 3 428 2 427 -35 0 -35 0 2 -427z"/>
<path d="M3772 743 l3 -428 30 0 30 0 3 428 2 427 -35 0 -35 0 2 -427z"/>
<path d="M7110 1110 c-22 -41 13 -80 59 -65 48 15 31 85 -19 85 -19 0 -33 -7
-40 -20z"/>
<path d="M6398 993 l-3 -78 -57 -3 c-54 -3 -58 -5 -58 -27 0 -22 4 -24 58 -27
l57 -3 5 -240 c4 -174 9 -246 18 -263 23 -40 99 -62 160 -46 16 5 22 14 22 35
0 28 -2 29 -48 29 -37 0 -54 5 -68 21 -17 19 -19 39 -19 243 l0 221 63 3 c58
3 62 4 62 27 0 23 -4 24 -62 27 l-63 3 -3 78 -3 77 -29 0 -29 0 -3 -77z"/>
<path d="M1232 899 c-92 -46 -137 -138 -137 -284 0 -107 14 -159 58 -217 49
-65 107 -92 192 -93 56 0 81 5 120 25 55 28 115 105 115 146 0 20 -5 24 -30
24 -25 0 -32 -6 -49 -45 -27 -62 -68 -85 -152 -85 -82 0 -122 24 -158 95 -23
43 -26 62 -26 150 0 89 3 105 27 150 37 68 69 88 144 93 90 6 152 -33 171
-108 8 -30 14 -35 41 -38 25 -3 32 0 32 15 0 70 -56 149 -127 178 -54 23 -169
20 -221 -6z"/>
<path d="M2214 896 c-101 -47 -149 -141 -149 -291 0 -78 4 -97 28 -147 71
-144 224 -195 368 -123 91 47 139 142 139 280 0 141 -54 240 -154 286 -61 28
-167 25 -232 -5z m231 -70 c57 -44 90 -122 88 -217 -1 -91 -24 -150 -77 -196
-44 -39 -69 -47 -144 -41 -71 5 -110 31 -147 100 -68 125 -31 301 80 370 47
30 150 22 200 -16z"/>
<path d="M4505 891 c-52 -30 -92 -78 -120 -143 -20 -50 -20 -209 0 -269 59
-173 291 -234 426 -112 40 36 40 36 21 56 -20 19 -20 19 -62 -14 -35 -28 -51
-34 -105 -37 -82 -5 -106 1 -150 40 -44 38 -71 88 -80 151 l-7 47 216 0 216 0
0 58 c0 77 -23 142 -67 187 -48 50 -89 65 -170 65 -57 0 -76 -5 -118 -29z
m188 -42 c57 -29 83 -68 101 -151 l6 -28 -180 0 c-178 0 -180 0 -180 22 0 39
42 109 83 139 32 24 50 29 94 29 30 0 64 -5 76 -11z"/>
<path d="M5493 899 c-50 -25 -88 -66 -117 -129 -17 -37 -21 -65 -21 -155 0
-90 4 -118 21 -155 50 -107 119 -154 229 -154 118 0 212 66 231 162 6 31 6 32
-30 32 -26 0 -36 -4 -36 -15 0 -30 -29 -73 -63 -94 -26 -16 -51 -21 -99 -21
-82 0 -123 25 -158 95 -22 43 -25 63 -25 150 0 85 4 107 23 147 33 66 72 91
148 96 90 6 142 -26 169 -105 11 -32 18 -39 44 -41 27 -3 31 0 31 20 -1 32
-33 101 -61 127 -47 44 -94 61 -171 61 -54 0 -84 -5 -115 -21z"/>
<path d="M7875 901 c-94 -42 -155 -156 -155 -287 0 -131 48 -228 138 -277 140
-76 308 -19 373 126 34 75 34 229 0 304 -26 58 -84 117 -137 139 -48 20 -170
18 -219 -5z m210 -65 c27 -16 51 -42 71 -78 26 -48 29 -62 29 -143 0 -74 -4
-98 -24 -138 -36 -73 -79 -101 -165 -105 -61 -3 -76 -1 -106 20 -69 47 -100
118 -100 228 1 105 43 189 112 223 51 25 133 22 183 -7z"/>
<path d="M8940 901 c-19 -11 -46 -31 -59 -45 -33 -35 -41 -33 -41 14 0 38 -2
40 -30 40 l-30 0 0 -301 0 -300 33 3 32 3 5 215 c6 244 12 265 88 308 48 27
136 30 170 6 52 -36 57 -62 60 -306 l4 -228 29 0 29 0 0 238 c0 227 -1 240
-22 282 -34 67 -75 90 -162 90 -49 -1 -82 -7 -106 -19z"/>
<path d="M9872 899 c-62 -31 -87 -71 -87 -142 0 -54 3 -61 36 -91 35 -32 58
-42 205 -85 84 -24 124 -58 124 -105 0 -69 -55 -106 -158 -106 -80 0 -127 24
-152 77 -13 27 -21 33 -49 33 -32 0 -33 -1 -27 -32 9 -47 49 -92 103 -119 71
-34 190 -34 258 2 64 32 95 77 95 136 0 101 -48 143 -214 189 -116 32 -156 60
-156 108 0 23 9 41 30 61 27 26 39 30 103 33 62 3 77 1 107 -20 19 -13 41 -38
49 -56 12 -27 20 -32 49 -32 33 0 33 1 27 33 -10 47 -48 92 -98 116 -61 30
-185 30 -245 0z"/>
<path d="M7112 613 l3 -298 30 0 30 0 3 298 2 297 -35 0 -35 0 2 -297z"/>
</g>
</svg>
